<svg xmlns="http://www.w3.org/2000/svg" viewBox="0 0 1200 650"><rect width="1200" height="650" fill="#101923"/><text x="60" y="70" fill="#fff" font-family="Arial" font-size="34" font-weight="700">PC: diagnóstico de RAM</text><rect x="60" y="150" width="248" height="125" rx="18" fill="#172331" stroke="#45c7b1"/><text x="184" y="198" fill="#fff" font-family="Arial" font-size="22" text-anchor="middle">POST</text><text x="184" y="235" fill="#9eabb8" font-family="Arial" font-size="18" text-anchor="middle">falla</text><path d="M308 212h15" stroke="#9eabb8" stroke-width="4"/><rect x="338" y="150" width="248" height="125" rx="18" fill="#172331" stroke="#45c7b1"/><text x="461" y="198" fill="#fff" font-family="Arial" font-size="22" text-anchor="middle">RAM</text><text x="461" y="235" fill="#9eabb8" font-family="Arial" font-size="18" text-anchor="middle">un módulo</text><path d="M585 212h15" stroke="#9eabb8" stroke-width="4"/><rect x="615" y="150" width="248" height="125" rx="18" fill="#172331" stroke="#45c7b1"/><text x="739" y="198" fill="#fff" font-family="Arial" font-size="22" text-anchor="middle">Slot</text><text x="739" y="235" fill="#9eabb8" font-family="Arial" font-size="18" text-anchor="middle">prueba</text><path d="M862 212h15" stroke="#9eabb8" stroke-width="4"/><rect x="892" y="150" width="248" height="125" rx="18" fill="#172331" stroke="#45c7b1"/><text x="1016" y="198" fill="#fff" font-family="Arial" font-size="22" text-anchor="middle">POST</text><text x="1016" y="235" fill="#9eabb8" font-family="Arial" font-size="18" text-anchor="middle">compara</text><rect x="150" y="365" width="900" height="145" rx="20" fill="#0b121a" stroke="#263443"/><text x="600" y="410" fill="#f0ad45" font-family="Arial" font-size="23" text-anchor="middle">Regla NúcleoTech</text><text x="600" y="455" fill="#fff" font-family="Arial" font-size="20" text-anchor="middle">Una prueba → un resultado → una hipótesis</text><text x="600" y="490" fill="#9eabb8" font-family="Arial" font-size="18" text-anchor="middle">No cambies varias variables a la vez.</text></svg>